# xmcd CD database file generated by OrangeCD 6.4
#
# Track frame offsets:
#	150
#	10723
#	21108
#	37163
#	51355
#	65513
#	78290
#	87872
#	98060
#	113478
#	126960
#	138695
#	149780
#
# Disc length: 2211 seconds
#
# Revision: 0
# Processed by: cddbd v1.5.2PL0 Copyright (c) Steve Scherf et al.
# Submitted via: OrangeCD 6.4
#
DISCID=b308a10d
DTITLE=Peter Stampfel and Zoe Stampfel - Ass in the Air
DYEAR=2010
DGENRE=
TTITLE0=Drink American
TTITLE1=Demon In The Ground
TTITLE2=Ass In The Air
TTITLE3=Bad Boy
TTITLE4=We're Still Here
TTITLE5=Bammalamma
TTITLE6=Voodoo Queen Marie
TTITLE7=Dook Of The Beatniks
TTITLE8=Going Nowhere
TTITLE9=Song Of Man
TTITLE10=Oomalooma
TTITLE11=White Man's World
TTITLE12=Take Me Away
EXTD=
EXTT0=
EXTT1=
EXTT2=
EXTT3=
EXTT4=
EXTT5=
EXTT6=
EXTT7=
EXTT8=
EXTT9=
EXTT10=
EXTT11=
EXTT12=
PLAYORDER=
